HIERARCHY
ROOT root
{
	OFFSET	0	13.1	24.9
	CHANNELS 6  Xposition Yposition Zposition Xrotation Yrotation Zrotation
	JOINT spine_1
	{
		OFFSET	0	9.99999	0
		CHANNELS 3  Xrotation Yrotation Zrotation
		JOINT spine_2
		{
			OFFSET	0	112	-10
			CHANNELS 3  Xrotation Yrotation Zrotation
			JOINT spine_3
			{
				OFFSET	0	206.5	19.3
				CHANNELS 3  Xrotation Yrotation Zrotation
				JOINT spine_4
				{
					OFFSET	0	110.4	14.6
					CHANNELS 3  Xrotation Yrotation Zrotation
					JOINT neck_1
					{
						OFFSET	0	71.8	-50.3
						CHANNELS 3  Xrotation Yrotation Zrotation
						JOINT neck_2
						{
							OFFSET	0	86.2	-25.8
							CHANNELS 3  Xrotation Yrotation Zrotation
							JOINT head_ee
							{
								OFFSET	0	179.8	-8.7
								CHANNELS 3  Xrotation Yrotation Zrotation
								End Site
								{
									OFFSET	1	0	0
								}
							}
						}
					}
					JOINT left_clavicle
					{
						OFFSET	-43.2	22.4	-70.8
						CHANNELS 3  Xrotation Yrotation Zrotation
						JOINT left_shoulder
						{
							OFFSET	-93.9	-5.79999	48.7
							CHANNELS 3  Xrotation Yrotation Zrotation
							JOINT left_elbow
							{
								OFFSET	-291.4	-30.8	15.2
								CHANNELS 3  Xrotation Yrotation Zrotation
								JOINT left_lowarm_twist
								{
									OFFSET	-110.7	-3.89999	13.6
									CHANNELS 3  Xrotation Yrotation Zrotation
									JOINT left_hand
									{
										OFFSET	-110.7	-3.89999	13.6
										CHANNELS 3  Xrotation Yrotation Zrotation
										JOINT left_ee
										{
											OFFSET	-80.8	-5.10001	12.1
											CHANNELS 3  Xrotation Yrotation Zrotation
											End Site
											{
												OFFSET	1	0	0
											}
										}
									}
								}
							}
						}
					}
					JOINT right_clavicle
					{
						OFFSET	43.2	22.4	-70.8
						CHANNELS 3  Xrotation Yrotation Zrotation
						JOINT right_shoulder
						{
							OFFSET	93.9	-5.79999	48.7
							CHANNELS 3  Xrotation Yrotation Zrotation
							JOINT right_elbow
							{
								OFFSET	291.4	-30.8	15.2
								CHANNELS 3  Xrotation Yrotation Zrotation
								JOINT right_lowarm_twist
								{
									OFFSET	110.7	-3.89999	13.6
									CHANNELS 3  Xrotation Yrotation Zrotation
									JOINT right_hand
									{
										OFFSET	110.7	-3.89999	13.6
										CHANNELS 3  Xrotation Yrotation Zrotation
										JOINT right_ee
										{
											OFFSET	80.8	-5.10001	12.1
											CHANNELS 3  Xrotation Yrotation Zrotation
											End Site
											{
												OFFSET	1	0	0
											}
										}
									}
								}
							}
						}
					}
				}
			}
		}
	}
	JOINT left_hip
	{
		OFFSET	-82.8	-127.5	0.300001
		CHANNELS 3  Xrotation Yrotation Zrotation
		JOINT left_knee
		{
			OFFSET	-28.2	-396.7	2.2
			CHANNELS 3  Xrotation Yrotation Zrotation
			JOINT left_ankle
			{
				OFFSET	-11.7	-411.3	35.4
				CHANNELS 3  Xrotation Yrotation Zrotation
				JOINT left_toes
				{
					OFFSET	0	-60	-88.6
					CHANNELS 3  Xrotation Yrotation Zrotation
					JOINT left_foot_ee
					{
						OFFSET	-22.5	-16.5	-42.2
						CHANNELS 3  Xrotation Yrotation Zrotation
						End Site
						{
							OFFSET	1	0	0
						}
					}
				}
			}
		}
	}
	JOINT right_hip
	{
		OFFSET	82.8	-127.5	0.300001
		CHANNELS 3  Xrotation Yrotation Zrotation
		JOINT right_knee
		{
			OFFSET	28.2	-396.7	2.2
			CHANNELS 3  Xrotation Yrotation Zrotation
			JOINT right_ankle
			{
				OFFSET	11.7	-411.3	35.4
				CHANNELS 3  Xrotation Yrotation Zrotation
				JOINT right_toes
				{
					OFFSET	0	-60	-88.6
					CHANNELS 3  Xrotation Yrotation Zrotation
					JOINT right_foot_ee
					{
						OFFSET	22.5	-16.5	-42.2
						CHANNELS 3  Xrotation Yrotation Zrotation
						End Site
						{
							OFFSET	1	0	0
						}
					}
				}
			}
		}
	}
}
MOTION
Frames: 11
Frame Time: 0.02
2233.07 667.442 -1647.6 1.60053 51.3524 0.367389 -0.13245 -0.0708646 -0.589282 -0.132257 -0.0332242 -0.592597 -0.131811 0.093419 -0.586129 -0.13229 -0.000319919 -0.593527 4.06382 15.0742 -2.74723 5.14457 28.4599 -2.4799 -0.0 0.0 -0.0 5.23892 4.21048 10.2215 -11.3727 -29.0112 56.509 1.86436 -42.7198 0.729186 -43.2951 -3.30822 4.28715 -2.59224 -3.6982 -19.3766 -0.0 0.0 -0.0 10.5459 -1.38629 -20.7013 -12.7007 -26.8152 -56.5317 0.815543 21.9984 -0.158516 62.4174 1.99381 7.32636 0.657538 -0.887677 -4.75983 0.0 0.0 0.0 -5.65524 51.4578 -10.3289 -24.0457 0.225715 3.6561 33.6687 -30.1082 -5.25458 -14.8781 0.0 0.0 -0.0 0.0 -0.0 21.955 -5.2447 -9.61113 0.868598 0.0367405 0.128226 11.8173 4.08922 1.7052 -26.6186 0.0 0.0 0.0 0.0 0.0 
2215.89 665.207 -1658.72 0.692801 51.8923 1.40381 0.21382 -0.0220694 -0.67014 0.21407 0.020617 -0.670186 0.21392 0.15859 -0.651479 0.213331 0.0537129 -0.668348 4.64794 14.6549 -3.75576 5.83634 28.4887 -3.79583 -0.0 0.0 -0.0 5.18419 4.30404 10.1204 -12.152 -27.3172 57.9188 1.78978 -41.5564 0.679142 -43.3467 -3.31391 4.29053 -2.50039 -3.58848 -18.6706 -0.0 0.0 -0.0 10.5209 -0.487301 -20.7067 -11.1165 -27.9081 -56.5766 0.662167 18.1605 -0.105829 62.1376 1.96788 7.30154 0.646712 -0.215457 -4.41163 0.0 0.0 0.0 -4.36186 50.5035 -12.0314 -25.3936 0.192766 3.86032 35.335 -32.013 -5.57667 -14.7359 0.0 0.0 -0.0 0.0 -0.0 21.514 -5.43266 -9.78438 1.47202 0.0634095 0.216978 12.5191 4.6692 1.80536 -25.4805 0.0 0.0 0.0 0.0 0.0 
2195.16 669.126 -1668.48 -0.0197839 52.8045 2.50799 0.263561 -0.174078 -0.89189 0.263996 -0.116974 -0.901158 0.266053 0.0708353 -0.905953 0.264915 -0.073126 -0.905771 4.66295 14.1658 -4.4146 5.86663 28.2037 -4.57696 -0.0 0.0 -0.0 6.15309 6.78665 11.9282 -13.758 -26.6162 57.5015 1.67533 -39.6863 0.604619 -43.0614 -3.28247 4.27176 -2.31834 -3.67499 -17.4225 -0.0 0.0 -0.0 10.7657 0.839624 -21.2952 -6.86905 -30.0413 -54.1386 0.49359 13.74 -0.0594691 62.4429 1.99618 7.32861 0.579716 -0.0440172 -3.89255 0.0 0.0 0.0 -3.71213 49.2847 -13.1815 -26.6514 0.157692 4.05016 33.7913 -31.9405 -5.39459 -14.6084 0.0 0.0 -0.0 0.0 -0.0 21.399 -6.48634 -9.67929 0.0466301 0.00192306 0.00689739 11.6753 2.12732 1.67459 -25.4189 0.0 0.0 0.0 0.0 0.0 
2167.97 671.53 -1685.97 -0.446629 52.8941 3.15336 0.407254 -0.27177 -0.942564 0.407723 -0.211244 -0.957945 0.411512 -0.0122452 -0.980881 0.410207 -0.166996 -0.96664 5.25082 14.4225 -3.82084 6.45897 28.0412 -4.00572 -0.0 0.0 -0.0 5.65552 9.33305 11.0014 -15.1826 -26.0539 59.1171 1.57263 -37.9171 0.540259 -41.2184 -3.08166 4.14678 -2.15333 -4.69306 -16.7323 -0.0 0.0 -0.0 10.8792 1.00264 -21.5436 -6.94493 -26.103 -54.3734 0.453543 12.6627 -0.0503231 64.4202 2.18286 7.50021 0.471573 -0.718711 -3.44779 0.0 0.0 0.0 -6.2235 50.3563 -11.6185 -22.3172 0.26092 3.3932 31.2577 -31.8165 -5.08063 -13.9285 0.0 0.0 -0.0 0.0 -0.0 21.8805 -6.63002 -8.8448 -5.01484 -0.173749 -0.749771 16.2017 4.67542 2.3003 -24.4908 0.0 0.0 0.0 0.0 0.0 
2151.01 677.382 -1697.34 1.03793 53.1349 2.40736 0.370447 -0.278868 -1.13851 0.371145 -0.205861 -1.15394 0.375649 0.0335773 -1.17168 0.373765 -0.151876 -1.16228 3.11025 14.0476 -4.38878 4.16937 28.2108 -4.18389 -0.0 0.0 -0.0 6.04515 9.08187 11.6998 -16.9313 -24.5704 59.7836 1.40596 -34.854 0.441348 -39.5557 -2.90404 4.02857 -2.00978 -5.98056 -16.311 -0.0 0.0 -0.0 10.8145 0.350046 -21.3698 -5.39727 -25.3667 -54.5343 0.41927 11.7334 -0.0430812 63.4832 2.09365 7.41969 0.560337 0.91307 -3.36705 0.0 0.0 0.0 -1.07396 46.7865 -15.236 -28.0227 0.114707 4.25623 34.8795 -32.1926 -5.53848 -16.4146 0.0 0.0 -0.0 0.0 -0.0 20.922 -7.34386 -9.49742 -8.41119 -0.253852 -1.26475 19.3692 4.06402 2.70388 -24.517 0.0 0.0 0.0 0.0 0.0 
2126.4 682.434 -1710.48 2.62885 50.6857 0.514953 0.378087 -0.127341 -1.02157 0.378666 -0.0620815 -1.0276 0.380013 0.148542 -1.0187 0.378564 -0.0141987 -1.02938 -0.0570306 14.4826 -4.23049 0.753271 29.2792 -3.19321 -0.0 0.0 -0.0 5.93021 12.1461 11.433 -18.0418 -23.0657 60.6295 1.22596 -31.2692 0.343105 -37.2398 -2.66251 3.85545 -1.86468 -6.92643 -15.7187 -0.0 0.0 -0.0 10.6343 0.510438 -21.0008 -3.14679 -23.0603 -56.7485 0.392309 10.9979 -0.0377679 62.686 2.01881 7.35005 0.632346 2.28621 -3.28018 0.0 0.0 0.0 -0.298365 38.5094 -13.582 -35.1532 -0.18755 5.30797 36.4857 -28.6099 -5.46791 -16.9389 0.0 0.0 -0.0 0.0 -0.0 19.6129 -8.92211 -8.31661 -11.3058 -0.29793 -1.70667 21.0382 5.95839 2.93332 -25.2896 0.0 0.0 0.0 0.0 0.0 
2109.83 687.804 -1714.76 3.17421 50.5632 0.607644 0.310996 0.117523 -1.32925 0.311956 0.201861 -1.31908 0.307534 0.467981 -1.2497 0.305452 0.26476 -1.30791 -1.13228 13.7961 -4.25126 -0.480303 28.1908 -2.9956 -0.0 0.0 -0.0 6.42779 14.7653 12.1794 -17.3699 -25.1093 60.9876 0.921936 -24.5458 0.200562 -35.2962 -2.46537 3.70278 -1.86244 -4.31765 -14.5255 -0.0 0.0 -0.0 10.9235 3.64395 -21.7623 0.593988 -26.2418 -54.9117 0.265026 7.47954 -0.0173232 62.4758 1.99923 7.33152 1.10349 6.57466 -4.66287 0.0 0.0 0.0 3.42497 21.4084 -10.9009 -45.4493 -0.849328 6.74366 36.1062 -25.0948 -5.22329 -17.2377 0.0 0.0 -0.0 0.0 -0.0 18.0023 -7.63675 -8.69161 -11.3149 -0.298034 -1.70807 23.4121 6.72888 3.23403 -25.8639 0.0 0.0 0.0 0.0 0.0 
2096.73 689.913 -1722.6 2.43115 52.2083 1.97199 0.443361 0.251445 -1.62433 0.444759 0.354283 -1.60505 0.435038 0.672539 -1.49982 0.432153 0.427262 -1.58719 -1.05233 13.3402 -3.29844 -0.498496 26.6072 -2.0243 -0.0 0.0 -0.0 6.87463 17.5675 12.7446 -16.6646 -25.1449 60.8564 0.753183 -20.4608 0.135933 -33.2209 -2.26074 3.53251 -1.90714 -2.40212 -13.9587 -0.0 0.0 -0.0 11.2533 6.52078 -22.5667 1.50954 -25.8704 -54.3493 0.182605 5.16886 -0.00824227 62.4809 1.99971 7.33197 1.43485 9.86386 -5.50285 0.0 0.0 0.0 7.72224 8.92368 -9.34772 -51.9842 -1.39933 7.58551 35.6022 -24.8734 -5.15919 -17.2381 0.0 0.0 -0.0 0.0 -0.0 17.4279 -7.84582 -9.3025 -11.1957 -0.296663 -1.68984 28.6987 7.88134 3.86407 -25.4167 0.0 0.0 0.0 0.0 0.0 
2082.88 691.01 -1726.85 0.703282 53.72 3.98559 0.802901 0.211584 -1.85855 0.804762 0.329399 -1.84132 0.794378 0.68524 -1.74056 0.790375 0.401801 -1.8269 -1.22648 13.1658 -2.72965 -0.735115 25.863 -1.38731 -0.0 0.0 -0.0 6.96202 19.8985 12.7056 -16.5933 -24.9322 61.0738 0.638716 -17.5575 0.098637 -31.6661 -2.11155 3.40017 -1.92196 -1.12485 -13.4704 -0.0 0.0 -0.0 11.5159 9.56622 -23.1869 3.75109 -24.6544 -53.9261 0.173287 4.90643 -0.00742408 62.4565 1.99744 7.32982 1.65235 11.7653 -6.1491 0.0 0.0 0.0 10.4444 0.363 -7.34283 -56.4369 -1.82777 8.12133 35.2249 -24.7532 -5.11332 -17.2665 0.0 0.0 -0.0 0.0 -0.0 17.3268 -8.62785 -9.66413 -10.7796 -0.291579 -1.62618 32.2386 9.40614 4.27301 -25.0513 0.0 0.0 0.0 0.0 0.0 
2069.65 689.861 -1733.81 0.508281 55.2529 3.37842 0.63151 -0.154308 -1.40342 0.632603 -0.0647007 -1.41039 0.634549 0.217777 -1.39498 0.631833 -0.00524531 -1.41187 -0.317416 14.4144 -2.14977 0.298026 27.5247 -0.847433 -0.0 0.0 -0.0 6.11543 22.0878 11.2778 -17.8758 -25.1884 60.5784 0.774148 -20.9813 0.143351 -30.1551 -1.97008 3.26777 -1.90351 -0.545597 -13.0744 -0.0 0.0 -0.0 11.7605 13.6062 -23.6933 4.19691 -20.7731 -56.5431 0.203413 5.75413 -0.0102229 63.4033 2.0861 7.41276 1.70215 9.54998 -7.45412 0.0 0.0 0.0 12.3836 -4.12143 -5.69629 -59.1835 -2.11247 8.43488 32.9419 -26.0259 -4.93082 -15.3018 0.0 0.0 -0.0 0.0 -0.0 18.4695 -10.1074 -7.14522 -15.0324 -0.321724 -2.27786 31.932 14.1807 4.35469 -22.8336 0.0 0.0 0.0 0.0 0.0 
2054.08 692.37 -1738.13 -0.422683 57.5161 5.50923 1.04263 0.0275526 -2.13318 1.04515 0.163206 -2.12711 1.03942 0.569707 -2.05592 1.0336 0.23794 -2.12006 -2.18182 12.8706 -1.97944 -1.81549 24.8538 -0.410704 -0.0 0.0 -0.0 6.75761 22.749 12.1611 -16.5416 -24.3741 61.6657 0.511954 -14.2308 0.0639072 -29.4065 -1.9013 3.20081 -1.9643 0.401053 -13.0496 -0.0 0.0 -0.0 11.7418 13.5624 -23.652 6.78249 -22.5227 -53.4411 0.204595 5.78734 -0.0103417 62.2072 1.97433 7.30773 1.96334 14.1189 -7.20901 0.0 0.0 0.0 14.6985 -8.65667 -6.17123 -62.1287 -2.43418 8.7557 34.5196 -25.0758 -5.05486 -17.2925 0.0 0.0 -0.0 0.0 -0.0 15.7584 -8.70304 -8.79513 -11.0021 -0.294355 -1.66021 36.5568 11.2025 4.74304 -24.4949 0.0 0.0 0.0 0.0 0.0 
